<?xml version="1.0" encoding="UTF-8"?>
<svg width="24px" height="24px" viewBox="0 0 24 24" version="1.1" xmlns="http://www.w3.org/2000/svg" xmlns:xlink="http://www.w3.org/1999/xlink">
    <title>4e1def92-eb8b-47c1-9f53-2eec5aea077e@1.00x</title>
    <g id="icons" stroke="none" stroke-width="1" fill="none" fill-rule="evenodd">
        <g id="ic/--cont/socmed/ig/red" fill="#9D2121" fill-rule="nonzero">
            <path d="M12,1 C18.0751322,1 23,5.92486775 23,12 C23,18.0751322 18.0751322,23 12,23 C5.92486775,23 1,18.0751322 1,12 C1,5.92486775 5.92486775,1 12,1 Z M12,2.3 C6.64283793,2.3 2.3,6.64283793 2.3,12 C2.3,17.3571621 6.64283793,21.7 12,21.7 C17.3571621,21.7 21.7,17.3571621 21.7,12 C21.7,6.64283793 17.3571621,2.3 12,2.3 Z M14.0253982,6.95833333 C15.6197764,6.95833333 16.9275424,8.2091403 17.0189206,9.78102768 L17.0240208,9.95695592 L17.0240208,14.0253982 C17.0240208,15.619794 15.7732139,16.9275437 14.2013265,17.0189207 L14.0253982,17.0240208 L9.95695592,17.0240208 C8.36256015,17.0240208 7.05481048,15.7732139 6.96343345,14.2013265 L6.95833333,14.0253982 L6.95833333,9.95695592 C6.95833333,8.36256015 8.2091403,7.05481048 9.78102768,6.96343345 L9.95695592,6.95833333 L14.0253982,6.95833333 Z M14.0253982,7.97094112 L9.95695592,7.97094112 C8.90997562,7.97094112 8.05220456,8.78110553 7.97638855,9.80873618 L7.97094112,9.95695592 L7.97094112,14.0253982 C7.97094112,15.0723785 8.78112217,15.9301496 9.80873845,16.0059656 L9.95695592,16.011413 L14.0253982,16.011413 C15.0723785,16.011413 15.9301496,15.201232 16.0059656,14.1736157 L16.011413,14.0253982 L16.011413,9.95695592 C16.011413,8.86010115 15.1222348,7.97094112 14.0253982,7.97094112 Z M11.9911771,9.38783213 C13.4266638,9.38783213 14.594522,10.5556721 14.594522,11.9911588 C14.594522,13.4266455 13.4266638,14.5945038 11.9911771,14.5945038 C10.5556904,14.5945038 9.38783213,13.4266273 9.38783213,11.9911588 C9.38783213,10.5556904 10.5556904,9.38783213 11.9911771,9.38783213 Z M11.9911771,10.4004399 C11.1126484,10.4004399 10.4004399,11.1126301 10.4004399,11.9911771 C10.4004399,12.869724 11.1126301,13.5819143 11.9911771,13.5819143 C12.8697058,13.5819143 13.5819143,12.8697058 13.5819143,11.9911771 C13.5819143,11.1126301 12.869724,10.4004399 11.9911771,10.4004399 Z M14.5995637,8.7835628 C14.9440872,8.7835628 15.2233786,9.06285425 15.2233786,9.40737772 C15.2233786,9.75190118 14.9440872,10.0311926 14.5995637,10.0311926 C14.2550402,10.0311926 13.9757488,9.75190118 13.9757488,9.40737772 C13.9757488,9.06285425 14.2550402,8.7835628 14.5995637,8.7835628 Z"></path>
        </g>
    </g>
</svg>