<?xml version="1.0" encoding="UTF-8"?>
<svg width="129px" height="25px" viewBox="0 0 129 25" version="1.1" xmlns="http://www.w3.org/2000/svg" xmlns:xlink="http://www.w3.org/1999/xlink">
    <title>comp_mobile/--logo_kendi_xpress/red</title>
    <g id="comp_mobile/--logo_kendi_xpress/red" stroke="none" stroke-width="1" fill="none" fill-rule="evenodd">
        <path d="M81.8627232,9.45697595 L82.0428287,9.54494085 C82.5034264,9.76788636 82.9965022,9.88011744 83.5072933,9.88011744 C84.0284183,9.88011744 84.5392093,9.78456936 85.0322851,9.69357119 C85.4751675,9.61167284 85.8944296,9.53280776 86.2812135,9.53280776 C88.9884708,9.53280776 90.5776705,10.6686231 90.6743516,12.6589687 L90.679036,12.8542409 L90.679036,16.3819366 C90.679036,18.5492097 88.7052567,19.6851702 86.756574,19.6851702 C85.6419866,19.6851702 84.8728474,19.3408937 84.4949211,19.1209815 C84.5270301,19.2870532 84.5607998,19.4983395 84.5756779,19.704294 L84.5834976,19.906599 L84.5834976,24 L84.4580142,24 L84.457,23.879 L84.4521091,24 C84.0668014,24 82.8045865,23.9514676 82.1978376,23.3311635 C82.0080308,23.1335674 81.8974006,22.900315 81.8696656,22.6323612 L81.8627232,22.4954969 L81.8627232,9.45697595 Z M104.253973,9.44772447 C107.100231,9.44772447 108.312252,10.7823643 108.312252,12.7888739 C108.312252,14.443524 107.485538,15.9829096 104.420792,15.9829096 C103.608349,15.9829096 103.072008,15.7584947 102.943428,15.6986507 L102.913515,15.6841323 L102.913515,15.9829096 C102.913515,17.0354551 103.629509,17.5056123 104.751478,17.5056123 C106.660301,17.5056123 107.798509,16.6229301 107.816224,15.6462164 C108.25763,16.2634873 108.479071,16.8291926 108.479071,17.3539487 C108.479071,18.7249878 106.990986,19.7957329 104.659948,19.7957329 C101.613633,19.7957329 99.9332665,18.5592943 99.8342234,16.4625646 L99.8295775,16.2634873 L99.8295775,12.9769368 C99.8295775,10.7823643 101.407715,9.44772447 104.253973,9.44772447 Z M79.3427222,5.85921168 C79.7108682,5.85921168 80.1863901,5.94978329 80.4468777,6.00697114 L80.5444098,6.02907492 L80.9164311,6.11703982 L80.7082763,6.42946687 C80.1871513,7.20901785 79.7368875,8.02345146 79.3013865,8.8136189 C78.5721068,10.1330923 77.8221592,11.4889651 76.6883802,12.8251215 C77.7445877,13.9212358 78.4847991,15.202856 79.1774282,16.4660168 L79.3840579,16.8442073 C79.7062548,17.4345579 80.0359254,18.0377052 80.3954906,18.6267761 L80.765851,19.2101597 L80.9725295,19.5195535 L80.615271,19.6075184 C80.3805433,19.6606006 79.8210352,19.7788983 79.3988206,19.7788983 C78.9101737,19.7788983 77.7011047,19.6499842 77.0353047,18.4563915 C76.4477474,17.37503 75.6461302,15.9751748 74.6112616,14.6390184 C73.7470873,15.7232236 73.0694079,16.8654876 72.458556,17.9682717 L72.2005049,18.4381919 L72.1916473,18.4563915 C71.5258474,19.6499842 70.3167783,19.7788983 69.8281314,19.7788983 C69.4586936,19.7788983 68.9841405,19.6883267 68.7229264,19.6321548 L68.6249675,19.6105517 L68.2558988,19.5195535 L68.461101,19.2101597 C68.9704157,18.4412252 69.4132982,17.6313415 69.8414179,16.845724 C70.5972705,15.4610351 71.3782199,14.0308473 72.5400481,12.8251215 C71.4062691,11.4889651 70.6563215,10.134609 69.9314706,8.81968544 C69.5818888,8.1887648 69.2238035,7.53843122 68.8254692,6.90362799 L68.5186757,6.4309835 L68.3105209,6.11703982 L68.6677794,6.0321082 C68.9025071,5.97750929 69.4634915,5.85921168 69.8842298,5.85921168 C70.9024657,5.85921168 71.6635018,6.2476323 72.149334,7.01337583 L72.249222,7.18323503 L72.3702765,7.40314728 C73.3062347,9.08358013 73.9380803,10.218024 74.6142141,11.0339742 C75.2452724,10.2738362 75.8364647,9.23361252 76.6734543,7.73204027 L76.8566755,7.40314728 L76.9792063,7.18323503 C77.4575193,6.3051027 78.2532314,5.85921168 79.3427222,5.85921168 Z M91.8811666,9.39054729 C92.5425377,9.71207415 93.0400423,9.84250486 93.4976874,9.84250486 C94.3421166,9.84250486 95.2795511,9.44817946 96.4354742,9.44817946 C97.7405011,9.44817946 99.153296,9.90013703 99.153296,11.3818906 C99.153296,12.6983307 98.0342798,13.6189289 98.0342798,13.6189289 C98.0342798,11.8520478 96.3454214,11.5699534 94.9680571,11.888447 L94.9680571,19.7021565 L94.9222926,19.7006398 C94.54289,19.6945733 91.8811666,19.5975086 91.8811666,18.2568022 L91.8811666,9.39054729 Z M123.50622,9.53280776 C126.035078,9.53280776 127.486256,10.2547266 127.486256,11.5150512 C127.486256,12.0064413 127.281778,12.5285433 126.878201,13.0703009 L126.736309,13.2515996 L126.513391,13.5215608 L126.513391,13.1681846 C126.513391,12.0170578 124.995781,11.607566 123.696659,11.607566 C122.083091,11.607566 121.866078,12.1080559 121.866078,12.5979294 C121.866078,13.1484683 122.608645,13.2531162 123.820666,13.3805137 C125.584814,13.5640266 128,13.8173049 128,16.6018489 C128,18.5916755 126.404147,19.6851702 123.50622,19.6851702 C120.933073,19.6851702 119.334267,18.8843863 119.334267,17.5922123 C119.334267,17.0514051 119.583604,16.5207931 120.112979,15.9361255 L120.26432,15.7752822 L120.470999,15.5629531 L120.47838,15.8647637 C120.515287,17.3374174 122.145094,17.6468112 123.50622,17.6468112 C123.693707,17.6468112 125.335324,17.6149618 125.335324,16.5093341 C125.335324,15.7661823 124.310789,15.6630511 123.122388,15.5432368 C121.367098,15.3657904 119.183687,15.1443615 119.183687,12.7101605 C119.183687,10.6308523 120.679153,9.53280776 123.50622,9.53280776 Z M113.808866,9.53280776 C116.337725,9.53280776 117.788903,10.2547266 117.788903,11.5150512 C117.788903,12.0064413 117.584424,12.5285433 117.180847,13.0703009 L117.038955,13.2515996 L116.816038,13.5215608 L116.816038,13.1681846 C116.816038,12.0170578 115.298427,11.607566 113.997829,11.607566 C112.385737,11.607566 112.168725,12.1080559 112.168725,12.5979294 C112.168725,13.1484683 112.911291,13.2531162 114.123313,13.3805137 C115.887461,13.5640266 118.302646,13.8173049 118.302646,16.6018489 C118.302646,18.5916755 116.706793,19.6851702 113.808866,19.6851702 C111.235719,19.6851702 109.636914,18.8843863 109.636914,17.5922123 C109.636914,17.0514051 109.88625,16.5207931 110.415625,15.9361255 L110.566967,15.7752822 L110.773645,15.5629531 L110.781027,15.8647637 C110.817933,17.3374174 112.447741,17.6468112 113.808866,17.6468112 C113.996353,17.6468112 115.63797,17.6149618 115.63797,16.5093341 C115.63797,15.7661823 114.613436,15.6630511 113.425035,15.5432368 C111.669744,15.3657904 109.486334,15.1443615 109.486334,12.7101605 C109.486334,10.6308523 110.980324,9.53280776 113.808866,9.53280776 Z M37.0939802,9.34286316 C39.9138914,9.34286316 41.1137478,10.6449864 41.1137478,12.6032104 C41.1137478,14.2167548 40.2952566,15.7194372 37.2572801,15.7194372 C36.3302542,15.7194372 35.7656745,15.427165 35.7656745,15.427165 L35.7656745,15.427165 L35.7656745,15.7194372 C35.7656745,16.7464214 36.4746353,17.2039786 37.5858715,17.2039786 C39.4767654,17.2039786 40.6039333,16.3422794 40.6208607,15.3908829 C41.0579868,15.9925606 41.276052,16.5448543 41.276052,17.0568347 C41.276052,18.39524 39.8033653,19.4383495 37.4942642,19.4383495 C34.3845951,19.4383495 32.7107707,18.1573908 32.7107707,15.9925606 L32.7107707,15.9925606 L32.7107707,12.7876443 C32.7107707,10.6449864 34.2750647,9.34286316 37.0939802,9.34286316 Z M58.6096442,5.03577815 L58.7112088,5.03678599 C59.2947074,5.04585651 61.6625566,5.16679674 61.6625566,6.63017362 L61.6625566,6.63017362 L61.6625566,19.4387527 C61.1358147,19.1464804 60.6628423,19.1273316 60.0464846,19.1273316 C58.9173252,19.1273316 57.8807688,19.4387527 57.2265733,19.4387527 C54.4076578,19.4387527 52.7716711,18.2112093 52.7716711,16.0312615 L52.7716711,16.0312615 L52.7716711,12.7326165 C52.7716711,10.6252328 54.625723,9.34225846 56.7705283,9.34225846 C57.8439268,9.34225846 58.7351064,9.91067758 58.7351064,9.91067758 C58.7351064,9.91067758 58.6096442,9.32512526 58.6096442,8.95625754 L58.6096442,8.95625754 L58.6096442,5.03577815 Z M42.5131486,9.2863236 C42.5131486,9.2863236 43.3127209,9.72674764 44.5145687,9.72674764 C45.4047526,9.72674764 46.2590901,9.34175454 47.2239538,9.34175454 C49.2602244,9.34175454 51.4070213,10.0381687 51.4070213,12.5859764 L51.4070213,19.3475436 C51.4070213,19.3475436 48.350126,19.3102537 48.350126,17.9365741 L48.350126,12.8611155 C48.350126,11.9984084 48.0056029,11.5408512 46.9690465,11.5408512 C46.3317785,11.5408512 45.5690482,11.7061362 45.5690482,11.7061362 L45.5690482,19.3475436 L45.5242403,19.3465357 C45.1478539,19.3404887 42.5131486,19.24676 42.5131486,17.9365741 L42.5131486,9.2863236 Z M63.2095249,9.43487853 C63.4634364,9.43487853 66.2644287,9.48930164 66.2644287,10.8448401 L66.2644287,19.3479467 L66.2196208,19.3469389 C65.8442301,19.339884 63.2095249,19.2461553 63.2095249,17.9369773 L63.2095249,9.43487853 Z M23.0438122,5 C23.4201986,5.00705485 26.0558996,5.10078353 26.0558996,6.40895377 L26.0558996,12.8419666 C26.6911762,12.5668276 27.1999949,11.780716 27.9099514,10.440295 C28.4187701,9.45160859 29.4184845,9.43346756 29.8197642,9.43346756 C30.4739597,9.43346756 31.129151,9.52518057 31.6917392,9.7086066 C30.4918829,11.3030021 30.1822104,12.9719774 28.437689,13.9052329 C31.0016973,15.0219144 30.9648553,16.4157506 32.3479262,19.0361225 C32.3479262,19.0361225 31.0016973,19.3475436 30.5645713,19.3475436 C27.7287283,19.3475436 29.1635772,15.9763344 26.0558996,15.1700662 L26.0558996,19.3475436 L26.0110917,19.3465357 C25.6347052,19.3404887 23,19.24676 23,17.9365741 L23,5 L23.0438122,5 Z M86.0523909,11.5332508 C85.4624716,11.5332508 84.922775,11.6438136 84.6603805,11.7068344 L84.5834976,11.7258636 L84.5834976,16.2894218 C84.5834976,17.1235717 85.5785068,17.6832104 86.5085598,17.6832104 C87.3925204,17.6832104 87.9011927,17.1840265 87.9549836,16.2712609 L87.9597379,16.1059088 L87.9597379,13.1302687 C87.9597379,12.1186724 87.6467677,11.5332508 86.0523909,11.5332508 Z M57.0075124,11.5050731 C56.3174706,11.5050731 55.8255793,11.9636381 55.8255793,13.0067477 L55.8255793,13.0067477 L55.8255793,15.7561224 C55.8255793,16.7831066 56.2069444,17.3495101 57.4436428,17.3495101 C57.9534572,17.3495101 58.6096442,17.2406638 58.6096442,17.2406638 L58.6096442,17.2406638 L58.6096442,12.8243295 C58.6096442,12.0362023 57.8269993,11.5050731 57.0075124,11.5050731 Z M104.125537,11.6635299 C103.258308,11.6635299 102.948085,12.1667722 102.916292,13.0914876 L102.913515,13.2590311 L102.913515,13.6730728 C103.189579,13.747388 103.574887,13.8232198 103.961671,13.8232198 C104.621565,13.8232198 105.24603,13.5987576 105.24603,12.7888739 C105.24603,12.1154875 104.934536,11.6635299 104.125537,11.6635299 Z M36.9675223,11.5046699 C36.0574238,11.5046699 35.7656745,12.054948 35.7656745,13.0617755 L35.7656745,13.0617755 L35.7656745,13.4649096 C36.0385049,13.5394894 36.4208658,13.6120536 36.8032266,13.6120536 C37.4574221,13.6120536 38.0757713,13.3923455 38.0757713,12.6032104 C38.0757713,11.945094 37.7670946,11.5046699 36.9675223,11.5046699 Z M65.2282707,5.93305394 C65.7739314,5.93305394 66.1732197,6.35533693 66.1732197,6.62946814 L66.1732197,8.39015644 L64.2285564,8.39015644 C63.6639767,8.39015644 63.2636927,8.04144542 63.2636927,7.71188327 L63.2636927,5.93305394 L65.2282707,5.93305394 Z" id="Combined-Shape" fill="#9D2121"></path>
        <path d="M16.193256,20.2189621 C16.4020693,20.6119674 16.5576557,21.2209757 15.6650812,22.0509871 L15.6098071,22.0869875 C15.0161222,22.5149934 14.342597,23 10.3730971,23 C6.40155004,23 5.7259776,22.5149934 5.13638711,22.0869875 L5.06985346,22.0419869 C4.18853851,21.2209757 4.34310129,20.6119674 4.55293819,20.2189621 C6.34013436,20.7079687 8.35149775,20.9669723 10.3730971,20.9669723 C12.39572,20.9669723 14.4060598,20.7079687 16.193256,20.2189621 Z M18.4008425,7.11328336 C18.0579383,7.57528966 17.81637,7.91629431 17.81637,8.0912967 C17.81637,8.16629772 17.8788092,8.23529866 18.0630563,8.44530153 C21.1604535,11.928349 20.5411788,15.6934004 16.2185388,19.6404542 C14.4763808,20.1114606 12.4947016,20.3664641 10.5027865,20.3664641 C8.50063549,20.3664641 6.50564961,20.1054605 4.73994892,19.6144538 C0.455181918,15.6854003 -0.152833276,11.925349 2.94149321,8.44530153 C3.12676383,8.23529866 3.1892031,8.16629772 3.1892031,8.0912967 C3.1892031,7.8712937 2.88928988,7.453288 2.61291934,7.11328336 C5.02553181,7.51428883 7.75238783,7.72429169 10.5027865,7.72429169 C13.2583032,7.72429169 15.9851592,7.51428883 18.4008425,7.11328336 Z M10.3939784,1 C10.9467195,1 11.990786,1.45200616 12.2866048,1.8210112 C12.3920351,1.95401301 12.2866048,2.08001473 11.9129928,2.38001882 C11.5700886,2.66002264 11.1401789,2.69502311 11.1401789,3.2070301 C11.1401789,3.76603772 11.1831699,3.67903653 11.2937181,3.82003846 C11.3100956,3.8450388 11.3387562,3.86103901 11.3684405,3.86503907 C12.9058796,4.07104188 14.381903,4.74905112 15.5252582,5.7740651 C15.5416357,5.79006532 15.5631312,5.79806543 15.5846266,5.80406551 C16.8323885,5.96006764 17.7546472,6.17307054 18.2111704,6.40407369 C15.8190298,6.80407915 13.1105985,7.01508202 10.3735065,7.01508202 C7.63641457,7.01508202 4.92900684,6.80407915 2.53686626,6.40407369 C2.98929507,6.17507057 3.90131786,5.96306768 5.13167858,5.80606554 C5.15624485,5.80406551 5.17671674,5.79206535 5.19514144,5.77706514 C6.33337864,4.73005086 7.82168519,4.04704155 9.38676134,3.85503893 C9.41439839,3.85103888 9.44203544,3.83503866 9.45943655,3.81203835 C9.56691399,3.66603636 9.64163639,3.7570376 9.64163639,3.2070301 C9.64163639,2.69502311 9.22093901,2.66002264 8.87496403,2.38101883 C8.49725763,2.07201462 8.39694536,1.95501302 8.50339919,1.8210112 C8.79819444,1.45200616 9.83919015,1 10.3939784,1 Z" id="Combined-Shape" fill="#9D2121"></path>
    </g>
</svg>