<?xml version="1.0" encoding="UTF-8"?>
<svg width="24px" height="24px" viewBox="0 0 24 24" version="1.1" xmlns="http://www.w3.org/2000/svg" xmlns:xlink="http://www.w3.org/1999/xlink">
    <title>bedd30d6-7d13-457b-a27c-64e78ed639da@1.00x</title>
    <g id="icons" stroke="none" stroke-width="1" fill="none" fill-rule="evenodd">
        <g id="ic/--cont/socmed/youtube/red" fill="#9D2121" fill-rule="nonzero">
            <path d="M12,1 C18.0751322,1 23,5.92486775 23,12 C23,18.0751322 18.0751322,23 12,23 C5.92486775,23 1,18.0751322 1,12 C1,5.92486775 5.92486775,1 12,1 Z M12,2.3 C6.64283793,2.3 2.3,6.64283793 2.3,12 C2.3,17.3571621 6.64283793,21.7 12,21.7 C17.3571621,21.7 21.7,17.3571621 21.7,12 C21.7,6.64283793 17.3571621,2.3 12,2.3 Z M15.1895831,8.33333333 C16.3812154,8.33333333 17.3472222,9.35718742 17.3472222,10.620178 L17.3472222,10.620178 L17.3472222,13.8381553 C17.3472222,15.1011459 16.3812154,16.125 15.1895831,16.125 L15.1895831,16.125 L9.11597242,16.125 C7.92434016,16.125 6.95833333,15.1011459 6.95833333,13.8381553 L6.95833333,13.8381553 L6.95833333,10.620178 C6.95833333,9.35718742 7.92434016,8.33333333 9.11597242,8.33333333 L9.11597242,8.33333333 Z M11.0280371,10.5108987 C10.9483899,10.4701509 10.8541667,10.5285736 10.8541667,10.6187155 L10.8541667,10.6187155 L10.8541667,13.5805501 C10.8541667,13.6694262 10.9459763,13.7279205 11.0254579,13.6896568 L11.0254579,13.6896568 L14.0083245,12.2536194 C14.0980519,12.2104353 14.0995899,12.0820535 14.0109037,12.0366959 L14.0109037,12.0366959 Z"></path>
        </g>
    </g>
</svg>